<svg width="21" height="20" viewBox="0 0 21 20" fill="none" xmlns="http://www.w3.org/2000/svg">
<path d="M18.893 6.66667C18.893 7.00834 18.6097 7.29167 18.268 7.29167H3.26801C2.92634 7.29167 2.64301 7.00834 2.64301 6.66667C2.64301 6.325 2.92634 6.04167 3.26801 6.04167H4.11801L4.43467 4.53334C4.73467 3.075 5.35967 1.73334 7.84301 1.73334H13.693C16.1763 1.73334 16.8013 3.075 17.1013 4.53334L17.418 6.04167H18.268C18.6097 6.04167 18.893 6.325 18.893 6.66667Z" fill="#292D32"/>
<path d="M19.2513 11.3833C19.1263 10.0083 18.7596 8.54167 16.0846 8.54167H5.45131C2.77631 8.54167 2.41798 10.0083 2.28464 11.3833L1.81798 16.4583C1.75964 17.0917 1.96798 17.725 2.40131 18.2C2.84298 18.6833 3.46798 18.9583 4.13464 18.9583H5.70131C7.05131 18.9583 7.30964 18.1833 7.47631 17.675L7.64298 17.175C7.83464 16.6 7.88464 16.4583 8.63464 16.4583H12.9013C13.6513 16.4583 13.6763 16.5417 13.893 17.175L14.0596 17.675C14.2263 18.1833 14.4846 18.9583 15.8346 18.9583H17.4013C18.0596 18.9583 18.693 18.6833 19.1346 18.2C19.568 17.725 19.7763 17.0917 19.718 16.4583L19.2513 11.3833ZM8.26798 13.125H5.76798C5.42631 13.125 5.14298 12.8417 5.14298 12.5C5.14298 12.1583 5.42631 11.875 5.76798 11.875H8.26798C8.60964 11.875 8.89298 12.1583 8.89298 12.5C8.89298 12.8417 8.60964 13.125 8.26798 13.125ZM15.768 13.125H13.268C12.9263 13.125 12.643 12.8417 12.643 12.5C12.643 12.1583 12.9263 11.875 13.268 11.875H15.768C16.1096 11.875 16.393 12.1583 16.393 12.5C16.393 12.8417 16.1096 13.125 15.768 13.125Z" fill="#292D32"/>
</svg>
